<svg data-v-423bf9ae="" xmlns="http://www.w3.org/2000/svg" viewBox="0 0 377 90" class="iconLeft"><!----><!----><!---->
    <g data-v-423bf9ae="" id="f3fcef61-6efe-4e2b-a3a7-93cf61169beb" fill="white"
       transform="matrix(6.571741429126384,0,0,6.571741429126384,109.07995773128016,-15.887182986596642)">
        <path
            d="M3.05 7.17L3.05 7.17L3.05 7.17Q2.89 7.17 2.75 7.21L2.75 7.21L2.75 7.21Q2.61 7.25 2.50 7.35L2.50 7.35L2.50 7.35Q2.39 7.44 2.33 7.58L2.33 7.58L2.33 7.58Q2.27 7.72 2.27 7.91L2.27 7.91L2.27 7.91Q2.27 8.18 2.46 8.44L2.46 8.44L2.46 8.44Q2.66 8.70 2.95 8.99L2.95 8.99L2.95 8.99Q3.24 9.27 3.58 9.57L3.58 9.57L3.58 9.57Q3.92 9.88 4.21 10.22L4.21 10.22L4.21 10.22Q4.50 10.55 4.69 10.94L4.69 10.94L4.69 10.94Q4.89 11.32 4.89 11.76L4.89 11.76L4.89 11.76Q4.89 12.25 4.72 12.63L4.72 12.63L4.72 12.63Q4.55 13.02 4.24 13.28L4.24 13.28L4.24 13.28Q3.93 13.55 3.49 13.69L3.49 13.69L3.49 13.69Q3.05 13.83 2.51 13.83L2.51 13.83L2.51 13.83Q2.04 13.83 1.65 13.70L1.65 13.70L1.65 13.70Q1.27 13.56 0.97 13.37L0.97 13.37L0.97 13.37Q0.68 13.17 0.46 12.95L0.46 12.95L0.46 12.95Q0.25 12.74 0.14 12.56L0.14 12.56L0.38 12.39L0.38 12.39Q0.46 12.49 0.60 12.61L0.60 12.61L0.60 12.61Q0.74 12.73 0.91 12.83L0.91 12.83L0.91 12.83Q1.07 12.93 1.26 13.00L1.26 13.00L1.26 13.00Q1.46 13.06 1.65 13.06L1.65 13.06L1.65 13.06Q2.15 13.06 2.46 12.83L2.46 12.83L2.46 12.83Q2.78 12.59 2.78 12.13L2.78 12.13L2.78 12.13Q2.78 11.87 2.60 11.59L2.60 11.59L2.60 11.59Q2.43 11.31 2.17 11.02L2.17 11.02L2.17 11.02Q1.91 10.73 1.61 10.41L1.61 10.41L1.61 10.41Q1.31 10.10 1.05 9.76L1.05 9.76L1.05 9.76Q0.79 9.43 0.62 9.07L0.62 9.07L0.62 9.07Q0.45 8.72 0.45 8.33L0.45 8.33L0.45 8.33Q0.45 7.90 0.63 7.58L0.63 7.58L0.63 7.58Q0.80 7.26 1.09 7.05L1.09 7.05L1.09 7.05Q1.38 6.84 1.75 6.73L1.75 6.73L1.75 6.73Q2.13 6.62 2.52 6.62L2.52 6.62L2.52 6.62Q2.98 6.62 3.36 6.71L3.36 6.71L3.36 6.71Q3.73 6.79 4.00 6.96L4.00 6.96L4.00 6.96Q4.27 7.12 4.42 7.38L4.42 7.38L4.42 7.38Q4.57 7.63 4.57 7.96L4.57 7.96L4.57 7.96Q4.57 8.22 4.40 8.42L4.40 8.42L4.40 8.42Q4.22 8.61 3.92 8.61L3.92 8.61L3.92 8.61Q3.62 8.61 3.47 8.48L3.47 8.48L3.47 8.48Q3.32 8.35 3.32 8.13L3.32 8.13L3.32 8.13Q3.32 7.99 3.39 7.91L3.39 7.91L3.39 7.91Q3.46 7.83 3.55 7.78L3.55 7.78L3.55 7.78Q3.64 7.72 3.71 7.69L3.71 7.69L3.71 7.69Q3.78 7.65 3.78 7.59L3.78 7.59L3.78 7.59Q3.78 7.40 3.58 7.28L3.58 7.28L3.58 7.28Q3.37 7.17 3.05 7.17ZM9.30 7.21L8.24 7.21L8.24 12.26L8.24 12.26Q8.24 12.63 8.37 12.77L8.37 12.77L8.37 12.77Q8.51 12.91 8.75 12.91L8.75 12.91L8.75 12.91Q8.93 12.91 9.08 12.80L9.08 12.80L9.08 12.80Q9.22 12.70 9.32 12.57L9.32 12.57L9.32 12.57Q9.45 12.43 9.54 12.24L9.54 12.24L9.75 12.33L9.75 12.33Q9.65 12.55 9.51 12.81L9.51 12.81L9.51 12.81Q9.37 13.07 9.13 13.29L9.13 13.29L9.13 13.29Q8.90 13.51 8.55 13.67L8.55 13.67L8.55 13.67Q8.20 13.82 7.66 13.82L7.66 13.82L7.66 13.82Q7.36 13.82 7.09 13.73L7.09 13.73L7.09 13.73Q6.81 13.64 6.59 13.45L6.59 13.45L6.59 13.45Q6.38 13.25 6.25 12.97L6.25 12.97L6.25 12.97Q6.12 12.68 6.12 12.28L6.12 12.28L6.12 7.21L5.35 7.21L5.35 6.72L5.35 6.72Q5.54 6.72 5.89 6.62L5.89 6.62L5.89 6.62Q6.23 6.52 6.59 6.29L6.59 6.29L6.59 6.29Q6.95 6.06 7.25 5.67L7.25 5.67L7.25 5.67Q7.56 5.28 7.69 4.70L7.69 4.70L8.24 4.70L8.24 6.72L9.35 6.72L9.35 6.72Q9.90 6.72 9.90 6.54L9.90 6.54L9.90 6.54Q9.90 6.47 9.83 6.44L9.83 6.44L9.83 6.44Q9.76 6.42 9.68 6.38L9.68 6.38L9.68 6.38Q9.59 6.34 9.52 6.28L9.52 6.28L9.52 6.28Q9.45 6.21 9.45 6.05L9.45 6.05L9.45 6.05Q9.45 5.86 9.57 5.75L9.57 5.75L9.57 5.75Q9.69 5.64 9.88 5.64L9.88 5.64L9.88 5.64Q10.01 5.64 10.10 5.69L10.10 5.69L10.10 5.69Q10.19 5.74 10.25 5.83L10.25 5.83L10.25 5.83Q10.32 5.91 10.35 6.02L10.35 6.02L10.35 6.02Q10.38 6.13 10.38 6.24L10.38 6.24L10.38 6.24Q10.38 6.69 10.12 6.95L10.12 6.95L10.12 6.95Q9.86 7.21 9.30 7.21L9.30 7.21ZM13.82 11.85L13.82 10.18L13.82 10.18Q13.82 10.01 13.71 9.92L13.71 9.92L13.71 9.92Q13.60 9.83 13.43 9.83L13.43 9.83L13.43 9.83Q13.19 9.83 12.97 9.94L12.97 9.94L12.97 9.94Q12.76 10.05 12.59 10.26L12.59 10.26L12.59 10.26Q12.43 10.47 12.33 10.78L12.33 10.78L12.33 10.78Q12.24 11.09 12.24 11.50L12.24 11.50L12.24 11.50Q12.24 11.90 12.29 12.16L12.29 12.16L12.29 12.16Q12.35 12.42 12.45 12.57L12.45 12.57L12.45 12.57Q12.55 12.73 12.68 12.79L12.68 12.79L12.68 12.79Q12.81 12.85 12.95 12.85L12.95 12.85L12.95 12.85Q13.13 12.85 13.29 12.76L13.29 12.76L13.29 12.76Q13.45 12.67 13.56 12.52L13.56 12.52L13.56 12.52Q13.68 12.38 13.75 12.20L13.75 12.20L13.75 12.20Q13.82 12.02 13.82 11.85L13.82 11.85ZM12.73 7.18L12.73 7.18L12.73 7.18Q12.50 7.18 12.30 7.24L12.30 7.24L12.30 7.24Q12.10 7.29 11.96 7.38L11.96 7.38L11.96 7.38Q11.81 7.46 11.73 7.56L11.73 7.56L11.73 7.56Q11.65 7.66 11.65 7.75L11.65 7.75L11.65 7.75Q11.65 7.85 11.75 7.89L11.75 7.89L11.75 7.89Q11.86 7.94 11.99 7.99L11.99 7.99L11.99 7.99Q12.12 8.05 12.23 8.16L12.23 8.16L12.23 8.16Q12.33 8.26 12.33 8.48L12.33 8.48L12.33 8.48Q12.33 8.63 12.27 8.75L12.27 8.75L12.27 8.75Q12.22 8.87 12.12 8.96L12.12 8.96L12.12 8.96Q12.02 9.05 11.88 9.10L11.88 9.10L11.88 9.10Q11.75 9.15 11.61 9.15L11.61 9.15L11.61 9.15Q11.22 9.15 10.99 8.89L10.99 8.89L10.99 8.89Q10.75 8.63 10.75 8.20L10.75 8.20L10.75 8.20Q10.75 7.79 10.97 7.49L10.97 7.49L10.97 7.49Q11.19 7.19 11.54 7L11.54 7L11.54 7Q11.89 6.81 12.34 6.72L12.34 6.72L12.34 6.72Q12.78 6.62 13.23 6.62L13.23 6.62L13.23 6.62Q13.76 6.62 14.25 6.74L14.25 6.74L14.25 6.74Q14.73 6.86 15.10 7.11L15.10 7.11L15.10 7.11Q15.48 7.36 15.70 7.75L15.70 7.75L15.70 7.75Q15.92 8.14 15.92 8.70L15.92 8.70L15.92 12.56L15.92 12.56Q15.92 12.62 15.93 12.69L15.93 12.69L15.93 12.69Q15.93 12.77 15.96 12.83L15.96 12.83L15.96 12.83Q15.99 12.89 16.04 12.93L16.04 12.93L16.04 12.93Q16.10 12.97 16.20 12.97L16.20 12.97L16.20 12.97Q16.32 12.97 16.43 12.88L16.43 12.88L16.43 12.88Q16.54 12.79 16.62 12.69L16.62 12.69L16.79 12.84L16.79 12.84Q16.69 12.98 16.54 13.15L16.54 13.15L16.54 13.15Q16.40 13.32 16.19 13.47L16.19 13.47L16.19 13.47Q15.99 13.62 15.72 13.73L15.72 13.73L15.72 13.73Q15.44 13.83 15.09 13.83L15.09 13.83L15.09 13.83Q14.66 13.83 14.33 13.57L14.33 13.57L14.33 13.57Q13.99 13.32 13.89 12.78L13.89 12.78L13.89 12.78Q13.67 13.08 13.44 13.28L13.44 13.28L13.44 13.28Q13.20 13.47 12.95 13.60L12.95 13.60L12.95 13.60Q12.71 13.72 12.46 13.77L12.46 13.77L12.46 13.77Q12.21 13.83 11.96 13.83L11.96 13.83L11.96 13.83Q11.63 13.83 11.32 13.73L11.32 13.73L11.32 13.73Q11.01 13.62 10.77 13.40L10.77 13.40L10.77 13.40Q10.53 13.18 10.38 12.82L10.38 12.82L10.38 12.82Q10.23 12.47 10.23 11.96L10.23 11.96L10.23 11.96Q10.23 11.33 10.48 10.94L10.48 10.94L10.48 10.94Q10.73 10.54 11.13 10.27L11.13 10.27L11.13 10.27Q11.53 10.00 12.03 9.81L12.03 9.81L12.03 9.81Q12.54 9.62 13.08 9.41L13.08 9.41L13.08 9.41Q13.47 9.25 13.65 8.94L13.65 8.94L13.65 8.94Q13.84 8.63 13.84 8.30L13.84 8.30L13.84 8.30Q13.84 7.79 13.54 7.49L13.54 7.49L13.54 7.49Q13.24 7.18 12.73 7.18ZM20.99 7.21L19.93 7.21L19.93 12.26L19.93 12.26Q19.93 12.63 20.06 12.77L20.06 12.77L20.06 12.77Q20.20 12.91 20.44 12.91L20.44 12.91L20.44 12.91Q20.62 12.91 20.77 12.80L20.77 12.80L20.77 12.80Q20.91 12.70 21.01 12.57L21.01 12.57L21.01 12.57Q21.14 12.43 21.23 12.24L21.23 12.24L21.44 12.33L21.44 12.33Q21.33 12.55 21.19 12.81L21.19 12.81L21.19 12.81Q21.05 13.07 20.82 13.29L20.82 13.29L20.82 13.29Q20.59 13.51 20.24 13.67L20.24 13.67L20.24 13.67Q19.89 13.82 19.35 13.82L19.35 13.82L19.35 13.82Q19.05 13.82 18.77 13.73L18.77 13.73L18.77 13.73Q18.50 13.64 18.28 13.45L18.28 13.45L18.28 13.45Q18.07 13.25 17.94 12.97L17.94 12.97L17.94 12.97Q17.81 12.68 17.81 12.28L17.81 12.28L17.81 7.21L17.04 7.21L17.04 6.72L17.04 6.72Q17.23 6.72 17.58 6.62L17.58 6.62L17.58 6.62Q17.92 6.52 18.28 6.29L18.28 6.29L18.28 6.29Q18.63 6.06 18.94 5.67L18.94 5.67L18.94 5.67Q19.25 5.28 19.38 4.70L19.38 4.70L19.93 4.70L19.93 6.72L21.04 6.72L21.04 6.72Q21.59 6.72 21.59 6.54L21.59 6.54L21.59 6.54Q21.59 6.47 21.52 6.44L21.52 6.44L21.52 6.44Q21.45 6.42 21.37 6.38L21.37 6.38L21.37 6.38Q21.28 6.34 21.21 6.28L21.21 6.28L21.21 6.28Q21.14 6.21 21.14 6.05L21.14 6.05L21.14 6.05Q21.14 5.86 21.26 5.75L21.26 5.75L21.26 5.75Q21.38 5.64 21.57 5.64L21.57 5.64L21.57 5.64Q21.70 5.64 21.79 5.69L21.79 5.69L21.79 5.69Q21.88 5.74 21.94 5.83L21.94 5.83L21.94 5.83Q22.00 5.91 22.04 6.02L22.04 6.02L22.04 6.02Q22.07 6.13 22.07 6.24L22.07 6.24L22.07 6.24Q22.07 6.69 21.81 6.95L21.81 6.95L21.81 6.95Q21.55 7.21 20.99 7.21L20.99 7.21ZM28.54 7.62L28.54 12.53L28.54 12.53Q28.54 12.59 28.55 12.66L28.55 12.66L28.55 12.66Q28.55 12.74 28.58 12.80L28.58 12.80L28.58 12.80Q28.61 12.87 28.66 12.91L28.66 12.91L28.66 12.91Q28.72 12.95 28.82 12.95L28.82 12.95L28.82 12.95Q28.95 12.95 29.05 12.85L29.05 12.85L29.05 12.85Q29.16 12.76 29.24 12.67L29.24 12.67L29.41 12.81L29.41 12.81Q29.31 12.95 29.15 13.13L29.15 13.13L29.15 13.13Q29.00 13.30 28.78 13.46L28.78 13.46L28.78 13.46Q28.56 13.62 28.28 13.72L28.28 13.72L28.28 13.72Q28 13.83 27.64 13.83L27.64 13.83L27.64 13.83Q27.34 13.83 27.12 13.75L27.12 13.75L27.12 13.75Q26.90 13.67 26.75 13.54L26.75 13.54L26.75 13.54Q26.59 13.41 26.52 13.22L26.52 13.22L26.52 13.22Q26.44 13.04 26.44 12.84L26.44 12.84L26.44 12.53L26.44 12.53Q26.10 12.90 25.72 13.18L25.72 13.18L25.72 13.18Q25.56 13.30 25.38 13.42L25.38 13.42L25.38 13.42Q25.19 13.54 24.99 13.63L24.99 13.63L24.99 13.63Q24.79 13.72 24.58 13.77L24.58 13.77L24.58 13.77Q24.37 13.83 24.16 13.83L24.16 13.83L24.16 13.83Q23.75 13.83 23.46 13.68L23.46 13.68L23.46 13.68Q23.17 13.54 22.99 13.30L22.99 13.30L22.99 13.30Q22.81 13.06 22.73 12.76L22.73 12.76L22.73 12.76Q22.65 12.46 22.65 12.15L22.65 12.15L22.65 7.92L22.65 7.92Q22.65 7.86 22.64 7.79L22.64 7.79L22.64 7.79Q22.63 7.72 22.61 7.65L22.61 7.65L22.61 7.65Q22.58 7.59 22.52 7.55L22.52 7.55L22.52 7.55Q22.47 7.51 22.37 7.51L22.37 7.51L22.37 7.51Q22.24 7.51 22.14 7.60L22.14 7.60L22.14 7.60Q22.03 7.69 21.95 7.79L21.95 7.79L21.78 7.64L21.78 7.64Q21.88 7.50 22.04 7.32L22.04 7.32L22.04 7.32Q22.19 7.15 22.41 6.99L22.41 6.99L22.41 6.99Q22.63 6.84 22.91 6.73L22.91 6.73L22.91 6.73Q23.19 6.62 23.54 6.62L23.54 6.62L23.54 6.62Q23.84 6.62 24.07 6.70L24.07 6.70L24.07 6.70Q24.29 6.78 24.45 6.91L24.45 6.91L24.45 6.91Q24.60 7.05 24.67 7.23L24.67 7.23L24.67 7.23Q24.75 7.41 24.75 7.62L24.75 7.62L24.75 12.18L24.75 12.18Q24.75 12.28 24.78 12.38L24.78 12.38L24.78 12.38Q24.81 12.48 24.87 12.56L24.87 12.56L24.87 12.56Q24.92 12.64 25.01 12.69L25.01 12.69L25.01 12.69Q25.10 12.74 25.22 12.74L25.22 12.74L25.22 12.74Q25.42 12.74 25.62 12.64L25.62 12.64L25.62 12.64Q25.82 12.54 25.98 12.40L25.98 12.40L25.98 12.40Q26.15 12.26 26.27 12.12L26.27 12.12L26.27 12.12Q26.39 11.98 26.44 11.92L26.44 11.92L26.44 7.92L26.44 7.92Q26.44 7.86 26.43 7.79L26.43 7.79L26.43 7.79Q26.43 7.72 26.40 7.65L26.40 7.65L26.40 7.65Q26.37 7.59 26.32 7.55L26.32 7.55L26.32 7.55Q26.26 7.51 26.16 7.51L26.16 7.51L26.16 7.51Q26.04 7.51 25.93 7.60L25.93 7.60L25.93 7.60Q25.83 7.69 25.74 7.79L25.74 7.79L25.57 7.64L25.57 7.64Q25.68 7.50 25.83 7.32L25.83 7.32L25.83 7.32Q25.98 7.15 26.20 6.99L26.20 6.99L26.20 6.99Q26.42 6.84 26.70 6.73L26.70 6.73L26.70 6.73Q26.99 6.62 27.34 6.62L27.34 6.62L27.34 6.62Q27.64 6.62 27.86 6.70L27.86 6.70L27.86 6.70Q28.09 6.78 28.24 6.91L28.24 6.91L28.24 6.91Q28.39 7.05 28.46 7.23L28.46 7.23L28.46 7.23Q28.54 7.41 28.54 7.62L28.54 7.62ZM36.18 8.54L36.18 13.12L36.18 13.12Q36.18 13.21 36.15 13.33L36.15 13.33L36.15 13.33Q36.12 13.45 36.02 13.56L36.02 13.56L36.02 13.56Q35.91 13.67 35.70 13.75L35.70 13.75L35.70 13.75Q35.49 13.83 35.12 13.83L35.12 13.83L35.12 13.83Q34.76 13.83 34.55 13.74L34.55 13.74L34.55 13.74Q34.34 13.66 34.24 13.54L34.24 13.54L34.24 13.54Q34.13 13.43 34.10 13.30L34.10 13.30L34.10 13.30Q34.08 13.18 34.08 13.10L34.08 13.10L34.08 8.27L34.08 8.27Q34.08 8.18 34.05 8.08L34.05 8.08L34.05 8.08Q34.02 7.98 33.97 7.90L33.97 7.90L33.97 7.90Q33.91 7.81 33.83 7.76L33.83 7.76L33.83 7.76Q33.75 7.71 33.64 7.71L33.64 7.71L33.64 7.71Q33.46 7.71 33.28 7.82L33.28 7.82L33.28 7.82Q33.10 7.92 32.95 8.06L32.95 8.06L32.95 8.06Q32.79 8.20 32.68 8.33L32.68 8.33L32.68 8.33Q32.57 8.47 32.52 8.54L32.52 8.54L32.52 13.12L32.52 13.12Q32.52 13.21 32.49 13.33L32.49 13.33L32.49 13.33Q32.46 13.45 32.36 13.56L32.36 13.56L32.36 13.56Q32.25 13.67 32.04 13.75L32.04 13.75L32.04 13.75Q31.83 13.83 31.47 13.83L31.47 13.83L31.47 13.83Q31.11 13.83 30.90 13.74L30.90 13.74L30.90 13.74Q30.69 13.66 30.58 13.54L30.58 13.54L30.58 13.54Q30.47 13.43 30.45 13.30L30.45 13.30L30.45 13.30Q30.42 13.18 30.42 13.10L30.42 13.10L30.42 7.83L30.42 7.83Q30.42 7.63 30.33 7.48L30.33 7.48L30.33 7.48Q30.24 7.33 30.02 7.33L30.02 7.33L30.02 7.33Q29.90 7.33 29.82 7.38L29.82 7.38L29.82 7.38Q29.74 7.42 29.64 7.49L29.64 7.49L29.50 7.32L29.50 7.32Q29.65 7.19 29.85 7.06L29.85 7.06L29.85 7.06Q30.04 6.94 30.27 6.84L30.27 6.84L30.27 6.84Q30.50 6.75 30.75 6.69L30.75 6.69L30.75 6.69Q31.01 6.62 31.30 6.62L31.30 6.62L31.30 6.62Q31.75 6.62 31.99 6.77L31.99 6.77L31.99 6.77Q32.24 6.92 32.35 7.12L32.35 7.12L32.35 7.12Q32.47 7.33 32.49 7.55L32.49 7.55L32.49 7.55Q32.52 7.77 32.52 7.92L32.52 7.92L32.52 7.92Q32.84 7.56 33.21 7.27L33.21 7.27L33.21 7.27Q33.36 7.15 33.54 7.03L33.54 7.03L33.54 7.03Q33.72 6.92 33.91 6.83L33.91 6.83L33.91 6.83Q34.10 6.73 34.31 6.68L34.31 6.68L34.31 6.68Q34.51 6.62 34.72 6.62L34.72 6.62L34.72 6.62Q35.12 6.62 35.40 6.77L35.40 6.77L35.40 6.77Q35.68 6.91 35.85 7.11L35.85 7.11L35.85 7.11Q36.02 7.31 36.10 7.54L36.10 7.54L36.10 7.54Q36.18 7.76 36.18 7.92L36.18 7.92L36.18 7.92Q36.50 7.56 36.87 7.27L36.87 7.27L36.87 7.27Q37.02 7.15 37.19 7.03L37.19 7.03L37.19 7.03Q37.37 6.92 37.57 6.83L37.57 6.83L37.57 6.83Q37.76 6.73 37.96 6.68L37.96 6.68L37.96 6.68Q38.17 6.62 38.37 6.62L38.37 6.62L38.37 6.62Q38.77 6.62 39.05 6.77L39.05 6.77L39.05 6.77Q39.33 6.92 39.50 7.16L39.50 7.16L39.50 7.16Q39.67 7.40 39.75 7.70L39.75 7.70L39.75 7.70Q39.83 8.00 39.83 8.30L39.83 8.30L39.83 12.53L39.83 12.53Q39.83 12.59 39.83 12.66L39.83 12.66L39.83 12.66Q39.84 12.74 39.87 12.80L39.87 12.80L39.87 12.80Q39.89 12.87 39.95 12.91L39.95 12.91L39.95 12.91Q40.01 12.95 40.11 12.95L40.11 12.95L40.11 12.95Q40.24 12.95 40.34 12.85L40.34 12.85L40.34 12.85Q40.44 12.76 40.53 12.67L40.53 12.67L40.69 12.81L40.69 12.81Q40.60 12.95 40.44 13.13L40.44 13.13L40.44 13.13Q40.28 13.30 40.07 13.46L40.07 13.46L40.07 13.46Q39.85 13.62 39.57 13.72L39.57 13.72L39.57 13.72Q39.29 13.83 38.93 13.83L38.93 13.83L38.93 13.83Q38.63 13.83 38.41 13.75L38.41 13.75L38.41 13.75Q38.19 13.67 38.03 13.54L38.03 13.54L38.03 13.54Q37.88 13.41 37.80 13.22L37.80 13.22L37.80 13.22Q37.73 13.04 37.73 12.84L37.73 12.84L37.73 8.27L37.73 8.27Q37.73 8.18 37.70 8.08L37.70 8.08L37.70 8.08Q37.67 7.98 37.62 7.90L37.62 7.90L37.62 7.90Q37.57 7.81 37.49 7.76L37.49 7.76L37.49 7.76Q37.41 7.71 37.30 7.71L37.30 7.71L37.30 7.71Q37.11 7.71 36.93 7.82L36.93 7.82L36.93 7.82Q36.75 7.92 36.60 8.06L36.60 8.06L36.60 8.06Q36.44 8.20 36.33 8.33L36.33 8.33L36.33 8.33Q36.22 8.47 36.18 8.54L36.18 8.54Z"></path>
    </g><!---->
    <g data-v-423bf9ae="" id="bc9f6229-75e4-4ecd-b195-e04770ac5c02" transform="matrix(2.8125,0,0,2.8125,0,0)"
       stroke="none" fill="white">
        <path
            d="M29.625 1l-3.099 3.172H4.054v23.657h22.472L29.625 31H1V1h28.625M32 0H0v32h32l-5.054-5.172H5.054V5.172h21.893L32 0z"></path>
        <path d="M21.038 10.962v10.076H10.962V10.962h10.076m1-1H9.962v12.076h12.076V9.962z"></path>
    </g><!---->
</svg>
